<?xml version="1.0" encoding="UTF-8"?>
<svg id="Ebene_1" data-name="Ebene 1" xmlns="http://www.w3.org/2000/svg" width="226" height="86" viewBox="0 0 226 86">
  <defs>
    <style>
      .cls-1 {
        fill: #e42832;
      }
    </style>
  </defs>
  <path class="cls-1" d="M.29.45h6.49v9.38h7.21V.45h6.49v25.24h-6.49v-9.38h-7.21v9.38H.29V.45Z"/>
  <path class="cls-1" d="M23.62,19.2v-9.38L33,.45h9.38l2.16,2.16v13.7l-9.38,9.38h-5.05l-6.49-6.49ZM38.05,19.2V6.94h-7.93v12.26h7.93Z"/>
  <path class="cls-1" d="M47.36,16.32V6.94L53.85.45h11.9v6.49h-11.9v12.26h11.9v6.49h-9.02l-9.38-9.38h0Z"/>
  <path class="cls-1" d="M68.42.45h6.49v9.38h7.21V.45h6.49v25.24h-6.49v-9.38h-7.21v9.38h-6.49V.45Z"/>
  <path class="cls-1" d="M91.57,19.2h12.98v-2.89h-10.82l-2.16-2.16v-7.21l6.49-6.49h12.98v6.49h-12.98v2.89h6.49l6.49,6.49v7.21l-2.16,2.16h-17.31v-6.49Z"/>
  <path class="cls-1" d="M114.18,16.32V2.61l2.16-2.16h16.23v6.49h-11.9v12.26h11.9v6.49h-9.02l-9.38-9.38h0Z"/>
  <path class="cls-1" d="M134.88.45h6.49v9.38h7.21V.45h6.49v25.24h-6.49v-9.38h-7.21v9.38h-6.49V.45Z"/>
  <path class="cls-1" d="M158.29,23.53V.45h6.49v18.75h7.21V.45h6.49v18.75l-6.49,6.49h-11.54l-2.16-2.16h0Z"/>
  <path class="cls-1" d="M181.55,23.53V.45h6.49v18.75h11.5v6.49h-15.83l-2.16-2.16h0Z"/>
  <path class="cls-1" d="M201.42,23.53v-13.7L210.8.45h9.34v6.49h-12.23v2.89h6.92v6.49h-6.92v2.89h12.23v6.49h-16.55l-2.16-2.16h0Z"/>
  <path class="cls-1" d="M1.62,35.79l6.49-6.49h11.76v6.49h-11.76v2.89h6.56v6.49h-6.56v9.38H1.62v-18.75Z"/>
  <path class="cls-1" d="M22.04,29.3h6.49v6.49h-6.49s0-6.49,0-6.49ZM22.04,48.05v-10.46h6.49v10.46h7.21v-10.46h6.49v7.57l-9.38,9.38h-4.33l-6.49-6.49h0ZM35.74,29.3h6.49v6.49h-6.49v-6.49Z"/>
  <path class="cls-1" d="M45.52,31.47l2.16-2.16h15.15l2.16,2.16v11.54l-2.16,2.16,4.65,9.38h-7.21l-4.65-9.38h-3.61v9.38h-6.49v-23.08h0ZM58.5,38.68v-2.89h-6.49v2.89h6.49Z"/>
  <path class="cls-1" d="M88.86,35.79h-6.67v-6.49h19.84v6.49h-6.67v18.75h-6.49s0-18.75,0-18.75Z"/>
  <path class="cls-1" d="M104.26,45.17v-9.38l6.49-6.49h12.23v6.49h-12.23v2.89h6.92v6.49h-6.92v2.89h12.23v6.49h-9.34l-9.38-9.38h0Z"/>
  <path class="cls-1" d="M125.58,52.38v-13.7l9.38-9.38h9.02v6.49h-11.9v12.26h11.9v6.49h-16.23l-2.16-2.16h0Z"/>
  <path class="cls-1" d="M146.46,29.3h6.49v9.38h7.21v-9.38h6.49v25.24h-6.49v-9.38h-7.21v9.38h-6.49v-25.24Z"/>
  <path class="cls-1" d="M170.26,29.3h6.49l7.21,12.37v-12.37h6.49v25.24h-6.49l-7.21-12.37v12.37h-6.49v-25.24Z"/>
  <path class="cls-1" d="M194.06,29.3h6.49v25.24h-6.49v-25.24Z"/>
  <path class="cls-1" d="M204.16,29.3h6.49v9.38h2.45l4.65-9.38h7.21l-6.28,12.62,6.28,12.62h-7.21l-4.65-9.38h-2.45v9.38h-6.49v-25.24Z"/>
  <path class="cls-1" d="M1.59,76.91h12.98v-2.89h-6.49l-6.49-6.49v-2.89l6.49-6.49h12.98v6.49h-12.98v2.89h10.82l2.16,2.16v11.54l-2.16,2.16H1.59v-6.49h0Z"/>
  <path class="cls-1" d="M29.68,64.64h-6.67v-6.49h19.84v6.49h-6.67v18.75h-6.49s0-18.75,0-18.75Z"/>
  <path class="cls-1" d="M45.19,76.91v-18.75h6.49v18.75h7.21v-18.75h6.49v18.75l-6.49,6.49h-7.21l-6.49-6.49Z"/>
  <path class="cls-1" d="M73.93,64.64h-6.67v-6.49h19.84v6.49h-6.67v18.75h-6.49s0-18.75,0-18.75Z"/>
  <path class="cls-1" d="M95.79,64.64h-6.67v-6.49h19.84v6.49h-6.67v18.75h-6.49v-18.75Z"/>
  <path class="cls-1" d="M110.9,81.23v-13.7l9.38-9.38h10.82v6.49h-13.7v12.26h7.21v-7.97h6.49v7.97l-6.49,6.49h-11.54l-2.16-2.16h0Z"/>
  <path class="cls-1" d="M134.52,67.53l9.38-9.38h4.33l6.49,6.49v18.75h-6.49v-9.38h-7.21v9.38h-6.49v-15.87h0ZM148.22,67.53v-2.89h-7.21v2.89h7.21Z"/>
  <path class="cls-1" d="M158.5,58.15h10.1l9.38,9.38v4.33l-2.16,2.16,4.65,9.38h-7.21l-4.65-9.38h-3.61v9.38h-6.49v-25.24h0ZM171.49,67.53v-2.89h-6.49v2.89h6.49Z"/>
  <path class="cls-1" d="M186.02,64.64h-6.67v-6.49h19.83v6.49h-6.67v18.75h-6.49v-18.75h0Z"/>
</svg>
