<?xml version="1.0" encoding="UTF-8"?><svg xmlns="http://www.w3.org/2000/svg" viewBox="0 0 425.197 368.283"><defs><style>.d{fill:none;}.e{fill:#61993b;}</style></defs><g id="a"><rect class="d" x="0" y="0" width="425.197" height="368.284"/></g><g id="b"/><g id="c"><path d="M56.693,56.692h28.347v86.174h42.52v27.212H56.693V56.692Zm83.621,113.386h28.348V56.692h-28.348v113.386ZM281.199,56.692v27.211h29.479v86.174h28.346V83.904h29.479v-27.211h-87.305Zm-17.67,106.658c9.645-6.745,14.536-16.505,14.536-29.01,0-8.84-3.208-16.086-9.535-21.54-6.001-5.185-14.835-8.815-26.256-10.788l-5.697-.985c-12.729-2.213-23.724-4.124-23.724-12.069,0-7.041,7.348-11.415,19.177-11.415,11.027,0,22.005,3.125,32.627,9.29l.133,.077,11.349-20.863-.132-.071c-17.739-9.595-30.904-11.56-45.214-11.56-13.165,0-24.465,3.357-32.677,9.709-8.27,6.401-12.744,15.396-12.94,26.012-.196,9.995,2.664,17.621,8.744,23.314,5.87,5.495,14.602,9.084,26.699,10.973l5.787,.908c14.768,2.263,23.733,4.215,23.733,12.233,0,7.244-7.413,11.744-19.347,11.744-13.008,0-25.085-3.814-36.921-11.656l-.129-.086-12.78,20.816,.113,.081c12.195,8.827,30.227,13.89,49.472,13.89,12.961,0,24.674-3.198,32.981-9.004Z"/><g><path class="e" d="M143.498,311.788H56.693v-113.368h86.48v24.374h-59.436v19.596h55.955v24.296h-55.955v20.729h59.761v24.373Z"/><path class="e" d="M197.833,230.162c7.394,0,13.939,1.538,19.637,4.617,5.693,3.076,10.458,7.341,14.291,12.794l-19.838,13.848c-1.999-2.592-4.171-4.509-6.52-5.75-2.347-1.241-5.06-1.863-8.137-1.863-2.214,0-4.306,.418-6.276,1.255-1.972,.837-3.714,2.039-5.222,3.606-1.513,1.568-2.701,3.467-3.563,5.707-.866,2.24-1.296,4.792-1.296,7.654s.43,5.426,1.296,7.693c.862,2.267,2.023,4.183,3.481,5.75,1.458,1.564,3.17,2.752,5.142,3.561,1.97,.809,4.061,1.216,6.276,1.216,5.938,0,10.931-2.564,14.979-7.693l19.76,14.088c-3.835,5.398-8.611,9.624-14.334,12.673-5.723,3.049-12.282,4.577-19.676,4.577-6.317,0-12.106-1.04-17.37-3.119-5.263-2.076-9.786-4.98-13.564-8.705-3.778-3.725-6.708-8.139-8.785-13.24-2.08-5.101-3.117-10.699-3.117-16.801,0-6.047,1.038-11.633,3.117-16.764,2.078-5.129,5.007-9.556,8.785-13.281,3.778-3.725,8.301-6.626,13.564-8.705,5.263-2.078,11.053-3.117,17.37-3.117Z"/><path class="e" d="M280.508,230.162c6.207,0,11.944,1.053,17.207,3.158s9.825,5.021,13.685,8.744c3.858,3.725,6.868,8.152,9.028,13.281,2.16,5.132,3.239,10.691,3.239,16.684s-1.079,11.551-3.239,16.68c-2.16,5.129-5.17,9.557-9.028,13.279-3.86,3.725-8.422,6.641-13.685,8.748-5.263,2.103-11,3.158-17.207,3.158s-11.944-1.055-17.207-3.158c-5.263-2.107-9.812-5.023-13.644-8.748-3.835-3.721-6.829-8.15-8.989-13.279-2.16-5.129-3.239-10.687-3.239-16.68s1.079-11.551,3.239-16.684c2.16-5.129,5.154-9.556,8.989-13.281,3.833-3.723,8.381-6.639,13.644-8.744s10.998-3.158,17.207-3.158Zm0,23.645c-2.484,0-4.765,.446-6.843,1.335-2.078,.891-3.887,2.146-5.426,3.768-1.538,1.618-2.74,3.549-3.602,5.789-.866,2.24-1.296,4.683-1.296,7.329,0,2.701,.43,5.156,1.296,7.368,.862,2.212,2.064,4.128,3.602,5.75,1.538,1.618,3.348,2.873,5.426,3.764,2.078,.891,4.359,1.337,6.843,1.337s4.777-.446,6.884-1.337c2.105-.891,3.927-2.146,5.465-3.764,1.538-1.622,2.74-3.538,3.604-5.75,.862-2.212,1.296-4.667,1.296-7.368,0-2.646-.434-5.089-1.296-7.329-.864-2.24-2.066-4.171-3.604-5.789-1.538-1.622-3.36-2.877-5.465-3.768-2.107-.889-4.402-1.335-6.884-1.335Z"/></g></g></svg>