<?xml version="1.0" encoding="UTF-8"?> <svg xmlns="http://www.w3.org/2000/svg" width="66" height="54" viewBox="0 0 66 54" fill="none"><g clip-path="url(#clip0_249_23451)"><path d="M47.7739 12.4912H0.0214844V43.0561H47.7739V12.4912Z" fill="#D7D7D7"></path><path d="M59.9111 12.5013L62.8992 4.60156L65.8873 12.5013H62.8992H59.9111Z" fill="#0768B2"></path><path d="M51.8525 34.5296L53.0013 33.6335L54.1062 32.6868L55.1573 31.6964L56.1578 30.6622L57.1011 29.5808L57.9904 28.459L58.8158 27.3035L59.5839 26.1076L60.2846 24.8713L60.9246 23.608L61.4973 22.311L61.9959 20.9837L62.4271 19.6295L62.7842 18.2449L63.0638 16.8401L63.2659 15.4084L63.3906 13.9598L63.4344 12.4944H62.353L62.3126 13.9025L62.1947 15.2905L61.9993 16.6616L61.7298 18.0091L61.3895 19.333L60.9785 20.6333L60.4934 21.9034L59.9477 23.1498L59.3346 24.3693L58.6574 25.5484L57.923 26.6971L57.1246 27.8156L56.2723 28.8902L55.3628 29.9312L54.3959 30.9283L53.3819 31.8884L52.3174 32.798L51.2057 33.6638L50.0468 34.4824L48.8509 35.2505L47.6045 35.968L46.321 36.635L44.9971 37.2448L43.6428 37.7973L42.2481 38.2891L40.8265 38.727L39.3712 39.0976L37.8923 39.4075L36.3831 39.6501L34.8503 39.8286L33.2973 39.9364L31.7207 39.9701V41.0515L33.3445 41.0111L34.948 40.8999L36.5313 40.718L38.0843 40.4721L39.6171 40.152L41.1162 39.7646L42.5884 39.32L44.0235 38.8079L45.4283 38.2352L46.796 37.6019L48.1199 36.9146L49.4068 36.1735L50.6532 35.3785L51.8525 34.5296Z" fill="#0768B2"></path><path d="M8.28099 31.6964L9.33205 32.6868L10.437 33.6335L11.5858 34.5296L12.785 35.3785L14.0315 36.1735L15.3184 36.9146L16.6423 37.6019L18.01 38.2352L19.4148 38.8079L20.8533 39.32L22.3221 39.7646L23.8212 40.152L25.3539 40.4721L26.9103 40.718L28.4936 40.8999L30.0972 41.0111L31.7209 41.0515V39.9701L30.1443 39.9364L28.588 39.8286L27.0552 39.6501L25.5493 39.4075L24.0671 39.0976L22.6118 38.727L21.1901 38.2891L19.7955 37.7973L18.4412 37.2448L17.1207 36.635L15.8338 35.968L14.5907 35.2505L13.3914 34.4824L12.2326 33.6638L11.1209 32.798L10.0563 31.8884L9.04233 30.9283L8.07549 29.9312L7.16593 28.8902L6.31362 27.8156L5.51522 26.6971L4.78083 25.5484L4.10371 24.3693L3.49059 23.1498L2.94485 21.9034L2.46311 20.6333L2.04875 19.333L1.70851 18.0091L1.439 16.6616L1.24362 15.2905L1.12571 13.9025L1.08528 12.4944H0.00390625L0.0476999 13.9598L0.172345 15.4084L0.374472 16.8401L0.65408 18.2449L1.01117 19.6295L1.44237 20.9837L1.94095 22.311L2.51364 23.608L3.15371 24.8713L3.85442 26.1076L4.6225 27.3035L5.45122 28.459L6.33721 29.5808L7.28046 30.6622L8.28099 31.6964Z" fill="#0768B2"></path><path d="M51.4121 8.86292L54.4002 0.963135L57.3883 8.86292H54.4002H51.4121Z" fill="#00A855"></path><path d="M44.7115 29.7965L45.7895 28.8566L46.817 27.8696L47.7872 26.8387L48.7102 25.7675L49.576 24.6591L50.3811 23.5104L51.1324 22.3246L51.8162 21.1051L52.4394 19.8519L52.9953 18.565L53.4871 17.2546L53.9082 15.9104L54.2552 14.5461L54.5247 13.1514L54.7268 11.7399L54.8448 10.3048L54.8885 8.8562H53.9183L53.8813 10.2408L53.7634 11.6085L53.5747 12.9594L53.312 14.2833L52.9818 15.5904L52.5809 16.8705L52.1127 18.1304L51.577 19.3567L50.9808 20.5593L50.3239 21.7283L49.6029 22.8703L48.8281 23.9753L47.9927 25.0465L47.1033 26.0774L46.1634 27.0712L45.173 28.0245L44.1287 28.9375L43.0439 29.8033L41.9087 30.6252L40.7329 31.3967L39.5168 32.1243L38.2569 32.7914L36.9599 33.4146L35.6326 33.9772L34.2649 34.4892L32.8669 34.9373L31.4385 35.3314L29.9832 35.6582L28.5009 35.9243L26.9951 36.1264L25.4623 36.2578L23.916 36.3252L23.9295 37.4032L25.5229 37.3358L27.0894 37.1977L28.6323 36.9922L30.155 36.716L31.6507 36.3791L33.1195 35.9782L34.5512 35.5167L35.956 34.9912L37.3237 34.4117L38.6544 33.7784L39.9548 33.0844L41.2079 32.3399L42.4241 31.5415L43.593 30.6926L44.7115 29.7965Z" fill="#00A855"></path><path d="M18.0449 8.01749L18.0483 9.02813C19.3183 9.02813 20.3087 8.63061 20.9993 7.85579C21.6899 7.08098 22.0369 5.97265 22.0369 4.54766C22.0369 3.09234 21.6866 1.96717 20.9993 1.19235C20.3188 0.417536 19.3318 0.0200195 18.0483 0.0200195V0.980121C18.9174 0.980121 19.6047 1.29005 20.0696 1.88969C20.5344 2.4927 20.777 3.37532 20.777 4.5106C20.777 5.64588 20.5344 6.51839 20.0696 7.1214C19.6047 7.72441 18.9242 8.01749 18.0449 8.01749Z" fill="black"></path><path d="M24.5667 7.38745H23.2461V8.88319H24.5667V7.38745Z" fill="black"></path><path d="M27.6215 6.31953C27.6418 6.88212 27.8169 7.30995 28.137 7.57945C28.457 7.85233 28.9623 7.98708 29.6394 7.98708C30.2896 7.98708 30.8118 7.85233 31.1924 7.58956C31.5698 7.31669 31.7651 6.93939 31.7651 6.4745C31.7651 5.81422 31.0846 5.30216 29.727 4.97202C29.5721 4.9316 29.4441 4.90465 29.3666 4.88443C29.2992 4.86422 29.1813 4.82716 29.0263 4.78674C28.2582 4.60146 27.7159 4.41954 27.4161 4.24437C27.1263 4.06919 26.8838 3.81653 26.7288 3.5066C26.5637 3.19668 26.4762 2.84632 26.4762 2.47913C26.4762 1.72115 26.7659 1.12151 27.3487 0.68357C27.9315 0.238891 28.7467 0.0131836 29.7641 0.0131836C30.6669 0.0131836 31.3845 0.208573 31.8999 0.585876C32.4254 0.973285 32.6848 1.50892 32.6848 2.16583V2.30058H31.5125C31.4923 1.88285 31.3104 1.55271 30.9971 1.32027C30.6871 1.08782 30.229 0.969916 29.6664 0.969916C29.0735 0.969916 28.5985 1.10467 28.2515 1.35733C27.9012 1.60998 27.7192 1.96707 27.7192 2.39491C27.7192 2.9676 28.3694 3.42238 29.6698 3.74242C29.855 3.78958 29.9999 3.83001 30.0976 3.85022C31.2632 4.15004 32.0481 4.49029 32.4153 4.85075C32.7825 5.21121 32.9779 5.72326 32.9779 6.36333C32.9779 7.19878 32.6882 7.84896 32.1054 8.31385C31.5226 8.77874 30.7073 9.02129 29.6799 9.02129C28.5547 9.02129 27.7192 8.80906 27.187 8.39133C26.6547 7.9736 26.3818 7.31332 26.3818 6.44081V6.31616L27.6215 6.31953Z" fill="black"></path><path d="M36.1516 7.38745H34.8311V8.88319H36.1516V7.38745Z" fill="black"></path><path d="M39.5747 6.31953C39.5949 6.88212 39.7701 7.30995 40.0901 7.57945C40.4101 7.85233 40.9154 7.98708 41.5926 7.98708C42.2427 7.98708 42.7649 7.85233 43.1456 7.58956C43.5229 7.31669 43.7183 6.93939 43.7183 6.4745C43.7183 5.81422 43.0378 5.30216 41.6802 4.97202C41.5252 4.9316 41.3972 4.90465 41.3197 4.88443C41.2523 4.86422 41.1344 4.82716 40.9795 4.78674C40.2114 4.60146 39.669 4.41954 39.3692 4.24437C39.0795 4.06919 38.8369 3.81653 38.6819 3.5066C38.5169 3.19668 38.4293 2.84632 38.4293 2.47913C38.4293 1.72115 38.719 1.12151 39.3018 0.68357C39.8846 0.238891 40.6998 0.0131836 41.7172 0.0131836C42.62 0.0131836 43.3376 0.208573 43.853 0.585876C44.3785 0.973285 44.6379 1.50892 44.6379 2.16583V2.30058H43.4656C43.4454 1.88285 43.2635 1.55271 42.9502 1.32027C42.6403 1.08782 42.1821 0.969916 41.6195 0.969916C41.0266 0.969916 40.5516 1.10467 40.2046 1.35733C39.8543 1.60998 39.6724 1.96707 39.6724 2.39491C39.6724 2.9676 40.3225 3.42238 41.6229 3.74242C41.8082 3.78958 41.953 3.83001 42.0507 3.85022C43.2163 4.15004 44.0012 4.49029 44.3684 4.85075C44.7356 5.21121 44.931 5.72326 44.931 6.36333C44.931 7.19878 44.6413 7.84896 44.0585 8.31385C43.4757 8.77874 42.6605 9.02129 41.633 9.02129C40.5078 9.02129 39.6724 8.80906 39.1401 8.39133C38.6078 7.9736 38.335 7.31332 38.335 6.44081V6.31616L39.5747 6.31953Z" fill="black"></path><path d="M47.8518 7.38745H46.5312V8.88319H47.8518V7.38745Z" fill="black"></path><path d="M5.06488 8.87982H4.05762L1.17395 1.15858V8.87982H0.0117188V0.147949H1.98919L4.58988 7.27965L7.06257 0.147949H9.00298V8.87982H7.86097V1.0811L5.06488 8.87982Z" fill="black"></path><path d="M18.0448 0.976654L18.0482 0.0131836C16.7782 0.0131836 15.7878 0.410699 15.0972 1.19562C14.4099 1.97044 14.0596 3.09561 14.0596 4.53408V4.54419C14.0596 5.95907 14.4099 7.07751 15.1073 7.85232C15.8046 8.62714 16.7849 9.02466 18.0448 9.02466V8.01403C18.0415 8.01739 18.0415 8.01403 18.0381 8.01403C17.1656 8.01403 16.4851 7.7041 16.0202 7.09098C15.5553 6.48797 15.3128 5.60535 15.3128 4.47007V4.48018C15.3128 3.35501 15.5553 2.47239 16.0202 1.86938C16.4851 1.26637 17.1656 0.966547 18.0381 0.966547C18.0381 0.973284 18.0415 0.976654 18.0448 0.976654Z" fill="black"></path><path d="M12.469 7.38745H11.1484V8.88319H12.469V7.38745Z" fill="black"></path><path d="M46.833 48.6415V48.9244C46.8465 48.9244 46.8566 48.9244 46.8701 48.9244C47.1126 48.9244 47.3147 48.8571 47.463 48.729C47.6112 48.601 47.6954 48.4292 47.6954 48.2136H47.335C47.335 48.3484 47.2878 48.4562 47.2002 48.5337C47.1227 48.601 46.9981 48.6415 46.8499 48.6415C46.8431 48.6415 46.8397 48.6415 46.833 48.6415Z" fill="black"></path><path d="M46.833 47.651V47.9137H47.7224C47.7224 47.8935 47.7325 47.8565 47.7325 47.8161C47.7325 47.7857 47.7325 47.7285 47.7325 47.6712C47.7325 47.3983 47.6449 47.176 47.4899 47.021C47.335 46.8661 47.1126 46.7886 46.8397 46.7886C46.8364 46.7886 46.8364 46.7919 46.833 46.7919V47.0446C46.8364 47.0446 46.8431 47.0412 46.8499 47.0412C46.9947 47.0412 47.1227 47.0985 47.217 47.2063C47.3046 47.304 47.3518 47.4489 47.3518 47.6139V47.6544L46.833 47.651Z" fill="black"></path><path d="M46.8332 47.0412V46.7886C46.5334 46.7886 46.2942 46.8863 46.1426 47.0783C45.9876 47.2636 45.9102 47.5432 45.9102 47.9036C45.9102 48.2338 45.9977 48.4965 46.1527 48.6717C46.3009 48.8334 46.5401 48.9176 46.8332 48.9244V48.6414C46.6648 48.638 46.5266 48.5808 46.4323 48.4864C46.3346 48.3887 46.2875 48.2338 46.2875 48.0418V47.9643V47.9171H46.8332V47.6544H46.3077C46.3077 47.4792 46.3649 47.3242 46.4626 47.2097C46.5536 47.1019 46.685 47.0446 46.8332 47.0412Z" fill="black"></path><path d="M40.9072 48.6415V48.9244C40.9207 48.9244 40.9308 48.9244 40.9443 48.9244C41.1868 48.9244 41.389 48.8571 41.5372 48.729C41.6854 48.601 41.7696 48.4292 41.7696 48.2136H41.4092C41.4092 48.3484 41.362 48.4562 41.2744 48.5337C41.1969 48.601 41.0723 48.6415 40.9241 48.6415C40.914 48.6415 40.9106 48.6415 40.9072 48.6415Z" fill="black"></path><path d="M40.9072 47.651V47.9137H41.7966C41.7966 47.8935 41.8067 47.8565 41.8067 47.8161C41.8067 47.7857 41.8067 47.7285 41.8067 47.6712C41.8067 47.3983 41.7191 47.176 41.5641 47.021C41.4092 46.8661 41.1868 46.7886 40.914 46.7886C40.9106 46.7886 40.9106 46.7919 40.9072 46.7919V47.0446C40.9106 47.0446 40.9173 47.0412 40.9241 47.0412C41.0689 47.0412 41.1969 47.0985 41.2913 47.2063C41.3789 47.304 41.426 47.4489 41.426 47.6139V47.6544L40.9072 47.651Z" fill="black"></path><path d="M42.7169 48.8738H42.3395V47.2635C42.3395 47.2231 42.3395 47.1658 42.3395 47.0984C42.3395 47.0209 42.3193 46.9333 42.3193 46.8356H42.6966L42.7169 47.186C42.764 47.0782 42.8516 46.9839 42.9594 46.9232C43.0672 46.8559 43.1918 46.8154 43.3266 46.8154C43.4614 46.8154 43.5995 46.8457 43.7039 46.903C43.8117 46.9603 43.9161 47.058 43.9936 47.1759C44.1014 47.0512 44.216 46.9535 44.3137 46.903C44.4113 46.8457 44.5461 46.8154 44.6808 46.8154C44.8156 46.8154 44.9537 46.8457 45.0683 46.903C45.1862 46.9603 45.2704 47.0479 45.3209 47.1456C45.3411 47.186 45.3613 47.2534 45.3681 47.3207C45.3782 47.3982 45.3883 47.506 45.3883 47.6307V48.8738H45.0278V47.5835C45.0278 47.4285 44.9874 47.3005 44.92 47.2231C44.8426 47.1456 44.7246 47.1051 44.5798 47.1051C44.4248 47.1051 44.2968 47.1523 44.2126 47.2399C44.1149 47.3376 44.0677 47.4622 44.0677 47.6172V48.8704H43.6904V47.6475C43.6904 47.4622 43.65 47.3174 43.5826 47.2298C43.5051 47.1422 43.3872 47.095 43.2323 47.095C43.0773 47.095 42.9426 47.1422 42.855 47.2399C42.7674 47.3376 42.7202 47.4723 42.7202 47.6475V48.8738H42.7169Z" fill="black"></path><path d="M40.9074 47.0412V46.7886C40.6076 46.7886 40.3684 46.8863 40.2168 47.0783C40.0619 47.2636 39.9844 47.5432 39.9844 47.9036C39.9844 48.2338 40.072 48.4965 40.2269 48.6717C40.3752 48.8334 40.6143 48.9176 40.9074 48.9244V48.6414C40.739 48.638 40.6009 48.5808 40.5065 48.4864C40.4088 48.3887 40.3617 48.2338 40.3617 48.0418V47.9643V47.9171H40.9074V47.6544H40.3785C40.3785 47.4792 40.4358 47.3242 40.5335 47.2097C40.6278 47.1019 40.7592 47.0446 40.9074 47.0412Z" fill="black"></path><path d="M25.1152 48.6178V48.9041C25.2028 48.8873 25.2803 48.8603 25.351 48.8233C25.4588 48.766 25.5464 48.6784 25.5936 48.5605V48.5706C25.6037 48.7256 25.6239 48.8334 25.634 48.8704H25.9743C25.9743 48.83 25.9541 48.7929 25.9541 48.7525C25.9541 48.7222 25.9541 48.6953 25.9541 48.6851V47.4252C25.9541 47.2029 25.8867 47.0277 25.7587 46.93C25.634 46.8323 25.4184 46.7852 25.1489 46.7852C25.1354 46.7852 25.1287 46.7885 25.1186 46.7885V47.0311C25.1354 47.0311 25.1523 47.0277 25.1691 47.0277C25.3039 47.0277 25.4117 47.058 25.4791 47.1153C25.5363 47.1726 25.5768 47.2602 25.5768 47.368V47.6004H25.2163C25.1826 47.6004 25.1523 47.6038 25.1152 47.6038V47.8598C25.159 47.8564 25.2062 47.8531 25.2534 47.8531H25.5734V48.0653C25.5734 48.2405 25.5262 48.3853 25.4285 48.483C25.3578 48.5571 25.25 48.6043 25.1152 48.6178Z" fill="black"></path><path d="M26.6143 47.1087H26.2471V46.8358H26.6143V46.5158C26.6143 46.3204 26.6614 46.1553 26.749 46.061C26.8366 45.9666 26.9815 45.906 27.1769 45.906C27.2173 45.906 27.2745 45.9161 27.3217 45.9161C27.379 45.9161 27.4464 45.9363 27.5171 45.9464V46.2463C27.4396 46.226 27.3823 46.2058 27.352 46.2058C27.3217 46.2058 27.2847 46.1957 27.2543 46.1957C27.1769 46.1957 27.0994 46.226 27.0589 46.2833C27.0185 46.3406 26.9916 46.4282 26.9916 46.5259V46.8358H27.4565V47.1087H26.9916V48.8739H26.6143V47.1087Z" fill="black"></path><path d="M28.2308 45.9431H27.7861V46.3608H28.2308V45.9431Z" fill="black"></path><path d="M28.2035 46.8357H27.8262V48.8738H28.2035V46.8357Z" fill="black"></path><path d="M29.2113 47.6813L29.9794 46.8357H30.4342L29.592 47.7184L30.5015 48.8739H30.0366L29.2113 47.7857V48.8739H28.834V45.9531H29.2113V47.6813Z" fill="black"></path><path d="M32.2972 48.0182C32.2972 48.2136 32.3645 48.3584 32.4622 48.4359C32.57 48.5235 32.7452 48.5707 32.9676 48.5707C33.1798 48.5707 33.3651 48.5235 33.483 48.446C33.6076 48.3584 33.6784 48.2237 33.6784 48.0687C33.6784 47.8565 33.4459 47.6813 32.9911 47.5735C32.944 47.5533 32.8934 47.5331 32.8732 47.5331C32.853 47.5331 32.8059 47.5129 32.7553 47.5028C32.5027 47.4455 32.3174 47.3781 32.2231 47.3175C32.1254 47.2602 32.0479 47.1726 32.0007 47.0749C31.9435 46.9772 31.9131 46.8526 31.9131 46.7347C31.9131 46.482 32.0108 46.2698 32.2028 46.1249C32.3949 45.9801 32.6677 45.9026 33.008 45.9026C33.3078 45.9026 33.5504 45.97 33.7255 46.098C33.9007 46.2226 33.9883 46.4079 33.9883 46.6302V46.6707H33.5908C33.5807 46.5359 33.5133 46.418 33.4156 46.3405C33.3179 46.263 33.1629 46.2226 32.9709 46.2226C32.7755 46.2226 32.6206 46.2698 32.506 46.3473C32.3881 46.4349 32.3309 46.5595 32.3309 46.7077C32.3309 46.9031 32.5532 47.0581 32.981 47.1625C33.0383 47.1726 33.0888 47.1928 33.1158 47.1928C33.5032 47.2905 33.7761 47.4051 33.8906 47.523C34.0152 47.6409 34.086 47.8228 34.086 48.0384C34.086 48.3113 33.9883 48.5336 33.7963 48.6886C33.6043 48.8435 33.3213 48.921 32.981 48.921C32.6138 48.921 32.3309 48.8536 32.1557 48.7189C31.9805 48.5841 31.8828 48.3584 31.8828 48.0687V48.0215L32.2972 48.0182Z" fill="black"></path><path d="M34.888 49.6385L35.2081 48.8738L34.376 46.8357H34.7533L35.4035 48.4561L36.0536 46.8357H36.4309L35.2384 49.6385H34.888Z" fill="black"></path><path d="M36.6733 48.2607H37.0506V48.2708C37.0506 48.3887 37.091 48.483 37.1685 48.5437C37.246 48.6009 37.3538 48.6414 37.4784 48.6414C37.5963 48.6414 37.7008 48.611 37.7782 48.5538C37.8557 48.4965 37.9029 48.419 37.9029 48.3213C37.9029 48.2539 37.8827 48.1967 37.8456 48.1562C37.8052 48.1158 37.7378 48.0687 37.6603 48.0484L37.2224 47.9508C37.0472 47.9103 36.9024 47.8328 36.8249 47.7554C36.7373 47.6678 36.6901 47.5532 36.6901 47.4151C36.6901 47.2298 36.7676 47.0749 36.9125 46.9603C37.0573 46.8458 37.2628 46.7852 37.5054 46.7852C37.7378 46.7852 37.9231 46.8323 38.0478 46.93C38.1825 47.0277 38.2499 47.1625 38.2499 47.3174C38.2499 47.3376 38.2499 47.3578 38.2499 47.3578L38.2398 47.3781H37.8726V47.368C37.8726 47.2703 37.8321 47.1928 37.7648 47.1355C37.6974 47.0782 37.5896 47.0479 37.4751 47.0479C37.3572 47.0479 37.2628 47.0782 37.1921 47.1355C37.1146 47.1928 37.0742 47.2703 37.0742 47.3477C37.0742 47.405 37.1045 47.4656 37.1416 47.5027C37.182 47.5431 37.2662 47.5903 37.3639 47.6105L37.8288 47.7352C37.9837 47.7756 38.1118 47.8531 38.1892 47.9373C38.2667 48.0215 38.3071 48.1495 38.3071 48.2876C38.3071 48.483 38.2297 48.638 38.0848 48.7424C37.94 48.8603 37.7345 48.9176 37.4919 48.9176C37.2089 48.9176 36.9967 48.8704 36.872 48.7727C36.7373 48.675 36.6699 48.5201 36.6699 48.3078L36.6733 48.2607Z" fill="black"></path><path d="M38.5356 46.8358H38.8859V46.4282L39.2531 46.2935V46.8358H39.7079V47.1087H39.2531V48.3686C39.2531 48.4663 39.2734 48.5438 39.3003 48.5707C39.3306 48.6011 39.4081 48.6179 39.5024 48.6179C39.5226 48.6179 39.5597 48.6179 39.59 48.6179C39.6203 48.6179 39.6574 48.5977 39.6978 48.5977V48.8706C39.6406 48.8908 39.5732 48.911 39.5328 48.911C39.4856 48.911 39.4351 48.9211 39.398 48.9211C39.2127 48.9211 39.078 48.8807 39.0005 48.8234C38.923 48.7661 38.8826 48.6482 38.8826 48.4933V47.1053H38.5322L38.5356 46.8358Z" fill="black"></path><path d="M25.115 47.0311V46.7886C24.8859 46.7919 24.704 46.8391 24.5827 46.9301C24.4648 47.0278 24.3975 47.1726 24.3975 47.3478V47.3781H24.7579C24.7579 47.2804 24.7983 47.1827 24.8758 47.1255C24.9331 47.0783 25.0207 47.0412 25.115 47.0311Z" fill="black"></path><path d="M25.115 47.8632V47.6072C24.8691 47.6207 24.6602 47.6847 24.5154 47.7958C24.3503 47.9205 24.2627 48.0957 24.2627 48.3113C24.2627 48.4965 24.3301 48.6515 24.448 48.7559C24.5659 48.8637 24.7377 48.921 24.9331 48.921C24.9971 48.921 25.0577 48.9176 25.115 48.9042V48.6178C25.088 48.6212 25.0577 48.6212 25.0308 48.6212C24.923 48.6212 24.8286 48.5808 24.7579 48.5235C24.6872 48.4662 24.6501 48.3685 24.6501 48.2708C24.6501 48.1462 24.7074 48.0384 24.8051 47.9609C24.8826 47.9104 24.9836 47.8767 25.115 47.8632Z" fill="black"></path><path d="M15.8477 48.6415V48.9244C15.8611 48.9244 15.8712 48.9244 15.8847 48.9244C16.1273 48.9244 16.3294 48.8571 16.4776 48.729C16.6258 48.601 16.7101 48.4292 16.7101 48.2136H16.3496C16.3496 48.3484 16.3024 48.4562 16.2149 48.5337C16.1374 48.601 16.0127 48.6415 15.8645 48.6415C15.8544 48.6415 15.851 48.6415 15.8477 48.6415Z" fill="black"></path><path d="M15.8477 47.651V47.9137H16.737C16.737 47.8935 16.7471 47.8565 16.7471 47.8161C16.7471 47.7857 16.7471 47.7285 16.7471 47.6712C16.7471 47.3983 16.6595 47.176 16.5046 47.021C16.3496 46.8661 16.1273 46.7886 15.8544 46.7886C15.851 46.7886 15.851 46.7919 15.8477 46.7919V47.0446C15.851 47.0446 15.8578 47.0412 15.8645 47.0412C16.0094 47.0412 16.1374 47.0985 16.2317 47.2063C16.3193 47.304 16.3664 47.4489 16.3664 47.6139V47.6544L15.8477 47.651Z" fill="black"></path><path d="M17.2585 48.8738V47.1557C17.2585 47.0985 17.2585 47.0311 17.2585 46.9907C17.2585 46.9435 17.2383 46.8829 17.2383 46.8357H17.6156L17.6257 47.2332C17.656 47.1086 17.7234 47.0008 17.8211 46.9435C17.9188 46.8761 18.0434 46.8357 18.1984 46.8357C18.2186 46.8357 18.2557 46.8357 18.2759 46.8357C18.2961 46.8357 18.3331 46.8559 18.3533 46.8559V47.2063C18.3129 47.2063 18.2658 47.186 18.2354 47.186C18.2051 47.186 18.1681 47.1759 18.1377 47.1759C17.9828 47.1759 17.848 47.2231 17.7604 47.3208C17.6729 47.4185 17.6257 47.5532 17.6257 47.7284V48.8738H17.2585Z" fill="black"></path><path d="M22.2542 48.7458C22.0588 48.8031 21.8769 48.8637 21.7119 48.8806C21.5468 48.9109 21.3817 48.9277 21.2268 48.9277C20.7821 48.9277 20.4317 48.793 20.1791 48.5403C19.9264 48.2776 19.8018 47.9104 19.8018 47.4455C19.8018 46.9705 19.9264 46.5932 20.1791 46.3203C20.4317 46.0474 20.7821 45.9026 21.2268 45.9026C21.5367 45.9026 21.7893 45.97 21.9645 46.1047C22.1397 46.2395 22.2475 46.445 22.2542 46.6774H21.8163C21.8163 46.5427 21.7489 46.4247 21.631 46.3372C21.5131 46.2496 21.348 46.2024 21.1661 46.2024C20.8764 46.2024 20.6338 46.3203 20.4688 46.5325C20.3037 46.7448 20.2161 47.0581 20.2161 47.4354C20.2161 47.8026 20.3037 48.1058 20.4789 48.2978C20.6541 48.4999 20.9168 48.6077 21.2369 48.6077C21.3143 48.6077 21.412 48.5976 21.4996 48.5875C21.5973 48.5673 21.7119 48.5403 21.8399 48.51V47.6274H21.2301V47.2973H22.2542V48.7458Z" fill="black"></path><path d="M22.905 48.8738V47.1557C22.905 47.0985 22.905 47.0311 22.905 46.9907C22.905 46.9435 22.8848 46.8829 22.8848 46.8357H23.2654L23.2755 47.2332C23.3059 47.1086 23.3732 47.0008 23.4709 46.9435C23.5686 46.8761 23.6933 46.8357 23.8482 46.8357C23.8684 46.8357 23.9055 46.8357 23.9257 46.8357C23.9459 46.8357 23.983 46.8559 24.0032 46.8559V47.2063C23.9628 47.2063 23.9156 47.186 23.8853 47.186C23.855 47.186 23.8179 47.1759 23.7876 47.1759C23.6326 47.1759 23.4979 47.2231 23.4103 47.3208C23.3227 47.4185 23.2755 47.5532 23.2755 47.7284V48.8738H22.905Z" fill="black"></path><path d="M15.8469 47.0412V46.7886C15.5471 46.7886 15.3079 46.8863 15.1563 47.0783C15.0013 47.2636 14.9238 47.5432 14.9238 47.9036C14.9238 48.2338 15.0114 48.4965 15.1664 48.6717C15.3146 48.8334 15.5538 48.9176 15.8469 48.9244V48.6414C15.6784 48.638 15.5403 48.5808 15.446 48.4864C15.3483 48.3887 15.3011 48.2338 15.3011 48.0418V47.9643V47.9171H15.8469V47.6544H15.3213C15.3213 47.4792 15.3786 47.3242 15.4763 47.2097C15.5673 47.1019 15.6986 47.0446 15.8469 47.0412Z" fill="black"></path><path d="M9.86816 48.6515V48.9008C9.89175 48.9042 9.91533 48.9042 9.94228 48.9042C10.2253 48.9042 10.4476 48.8065 10.6026 48.6313C10.7575 48.4561 10.835 48.1866 10.835 47.8565C10.835 47.5263 10.7474 47.2535 10.5925 47.0716C10.4375 46.8896 10.2151 46.7886 9.93217 46.7886C9.91196 46.7886 9.88838 46.7919 9.86816 46.7919V47.0412C10.0433 47.0412 10.1848 47.1187 10.2926 47.2703C10.3903 47.4152 10.4476 47.6207 10.4476 47.8733C10.4476 48.1058 10.3903 48.3113 10.2825 48.446C10.1882 48.5808 10.04 48.6481 9.86816 48.6515Z" fill="black"></path><path d="M12.7275 48.5538C12.6804 48.6616 12.5928 48.7559 12.485 48.8166C12.3671 48.8739 12.2323 48.9143 12.0774 48.9143C11.9527 48.9143 11.8247 48.884 11.7169 48.8469C11.6091 48.7997 11.5148 48.7223 11.4541 48.6448C11.4137 48.5976 11.3868 48.5269 11.3767 48.4696C11.3666 48.4123 11.3564 48.2843 11.3564 48.1192V46.8391H11.7236V48.1496C11.7236 48.3247 11.7641 48.4494 11.8314 48.5269C11.8988 48.6043 12.0167 48.6448 12.1717 48.6448C12.3267 48.6448 12.4715 48.5976 12.5692 48.5201C12.6669 48.4325 12.7242 48.318 12.7242 48.1799V46.8425H13.1015V48.4831C13.1015 48.5606 13.1015 48.6481 13.1015 48.7054C13.1015 48.7627 13.1116 48.8301 13.1116 48.8806H12.7343L12.7275 48.5538Z" fill="black"></path><path d="M13.476 46.8358H13.8264V46.4282L14.1936 46.2935V46.8358H14.6484V47.1087H14.1936V48.3686C14.1936 48.4663 14.2138 48.5438 14.2407 48.5707C14.2677 48.5977 14.3485 48.6179 14.4429 48.6179C14.4631 48.6179 14.5001 48.6179 14.5305 48.6179C14.5608 48.6179 14.5978 48.5977 14.6383 48.5977V48.8706C14.581 48.8908 14.5136 48.911 14.4732 48.911C14.426 48.911 14.3755 48.9211 14.3384 48.9211C14.1531 48.9211 14.0184 48.8807 13.9409 48.8234C13.8634 48.7661 13.823 48.6482 13.823 48.4933V47.1053H13.4727V46.8358H13.476Z" fill="black"></path><path d="M9.86747 47.0413V46.792C9.75293 46.8021 9.64513 46.8358 9.55418 46.8829C9.44637 46.9402 9.35205 47.0278 9.2813 47.1457L9.26109 46.8358H8.88379C8.88379 46.9032 8.904 46.9806 8.904 47.048C8.904 47.1053 8.91411 47.1828 8.91411 47.2434V49.6487L9.2813 49.6386V48.5606C9.35879 48.6684 9.45648 48.756 9.57102 48.8133C9.65861 48.8604 9.7563 48.8907 9.8641 48.8975V48.6482C9.86073 48.6482 9.85736 48.6482 9.85063 48.6482C9.67545 48.6482 9.53059 48.5707 9.4329 48.4258C9.3352 48.281 9.27794 48.0654 9.27794 47.8161C9.27794 47.5837 9.33521 47.3883 9.44301 47.2535C9.54744 47.1188 9.69229 47.0413 9.86747 47.0413Z" fill="black"></path><path d="M3.69238 48.6414V48.9244C3.99894 48.9143 4.24486 48.82 4.42341 48.6414C4.59858 48.4562 4.69628 48.1867 4.69628 47.8464C4.69628 47.5163 4.59858 47.2535 4.42341 47.0716C4.24823 46.8897 4.00231 46.792 3.69238 46.792V47.0615V47.0649C3.8844 47.0682 4.04273 47.1423 4.15054 47.2771C4.25834 47.4118 4.31561 47.6072 4.31561 47.8498C4.31561 48.1024 4.25834 48.3046 4.14043 48.4427C4.03937 48.5707 3.88103 48.6381 3.69238 48.6414Z" fill="black"></path><path d="M5.61627 48.8738H5.23896V47.2635C5.23896 47.2231 5.23896 47.1658 5.23896 47.0984C5.23896 47.0209 5.21875 46.9333 5.21875 46.8356H5.59605L5.61627 47.186C5.66343 47.0782 5.75102 46.9839 5.85882 46.9232C5.96662 46.8559 6.09126 46.8154 6.22601 46.8154C6.36077 46.8154 6.49889 46.8457 6.60332 46.903C6.71112 46.9603 6.81555 47.058 6.89303 47.1759C7.00083 47.0512 7.11537 46.9535 7.21307 46.903C7.31076 46.8457 7.44551 46.8154 7.58026 46.8154C7.71501 46.8154 7.85313 46.8457 7.96767 46.903C8.08558 46.9603 8.1698 47.0479 8.22033 47.1456C8.24054 47.186 8.26075 47.2534 8.26749 47.3207C8.2776 47.3982 8.28771 47.506 8.28771 47.6307V48.8738H7.92051V47.5835C7.92051 47.4285 7.88008 47.3005 7.81271 47.2231C7.73523 47.1456 7.61732 47.1051 7.47246 47.1051C7.3175 47.1051 7.18948 47.1523 7.10526 47.2399C7.00757 47.3376 6.96041 47.4622 6.96041 47.6172V48.8704H6.5831V47.6475C6.5831 47.4622 6.54268 47.3174 6.4753 47.2298C6.39782 47.1422 6.27992 47.095 6.12495 47.095C5.96999 47.095 5.83524 47.1422 5.74765 47.2399C5.66006 47.3376 5.6129 47.4723 5.6129 47.6475V48.8738H5.61627Z" fill="black"></path><path d="M2.2812 48.089C2.2812 48.3416 2.1734 48.5539 1.99148 48.6987C1.79609 48.8436 1.5367 48.9211 1.21667 48.9211C0.829256 48.9211 0.519329 48.7964 0.313834 48.5438C0.108339 48.2911 0.00390625 47.9138 0.00390625 47.4287C0.00390625 46.9436 0.111707 46.5663 0.32394 46.3035C0.536173 46.0408 0.856206 45.906 1.25372 45.906C1.56365 45.906 1.81631 45.9835 1.99148 46.1182C2.16666 46.2631 2.27446 46.4686 2.27446 46.7212H1.85673C1.84663 46.5764 1.77925 46.4484 1.66134 46.3608C1.54344 46.2631 1.37837 46.2159 1.20656 46.2159C0.964008 46.2159 0.768619 46.3237 0.633868 46.536C0.499117 46.7482 0.421635 47.0514 0.421635 47.4186C0.421635 47.7858 0.489011 48.089 0.623762 48.281C0.758513 48.4764 0.953901 48.5808 1.20656 48.5808C1.39184 48.5808 1.54681 48.5336 1.65124 48.4562C1.75904 48.3686 1.82641 48.2439 1.84663 48.089H2.2812Z" fill="black"></path><path d="M3.69315 46.7885L3.69652 47.058C3.50113 47.058 3.33606 47.1355 3.23163 47.2804C3.12383 47.4252 3.06656 47.6307 3.06656 47.8834C3.06656 48.1158 3.12383 48.3112 3.22152 48.4359C3.32932 48.5706 3.48429 48.638 3.67631 48.638C3.67968 48.638 3.68978 48.638 3.69315 48.638V48.921C3.67968 48.921 3.66283 48.921 3.64599 48.921C3.35627 48.921 3.11372 48.8233 2.93855 48.6481C2.76337 48.4729 2.67578 48.2101 2.67578 47.8901C2.67578 47.56 2.77348 47.2804 2.94865 47.085C3.12383 46.8896 3.37649 46.7852 3.68641 46.7852C3.68978 46.7885 3.69315 46.7885 3.69315 46.7885Z" fill="black"></path><path d="M3.69228 47.0615L3.68555 47.0581C3.68892 47.0581 3.69228 47.0615 3.69228 47.0615Z" fill="black"></path><path d="M46.8232 52.9872V53.2701C46.8367 53.2701 46.8468 53.2701 46.8603 53.2701C47.1029 53.2701 47.305 53.2028 47.4532 53.0747C47.6014 52.9467 47.6857 52.7749 47.6857 52.5593H47.3252C47.3252 52.6941 47.278 52.8019 47.1904 52.8794C47.113 52.9467 46.9883 52.9872 46.8401 52.9872C46.8333 52.9872 46.83 52.9872 46.8232 52.9872Z" fill="black"></path><path d="M46.8232 51.9967V52.2594H47.7126C47.7126 52.2392 47.7227 52.2022 47.7227 52.1618C47.7227 52.1314 47.7227 52.0742 47.7227 52.0169C47.7227 51.744 47.6351 51.5217 47.4802 51.3667C47.3252 51.2118 47.1029 51.1343 46.83 51.1343C46.8266 51.1343 46.8266 51.1376 46.8232 51.1376V51.3903C46.8266 51.3903 46.8333 51.3869 46.8401 51.3869C46.9849 51.3869 47.113 51.4442 47.2073 51.552C47.2949 51.6497 47.342 51.7946 47.342 51.9596V52.0001H46.8232V51.9967Z" fill="black"></path><path d="M46.8234 51.3869V51.1343C46.5236 51.1343 46.2844 51.232 46.1328 51.424C45.9779 51.6093 45.9004 51.8889 45.9004 52.2493C45.9004 52.5795 45.988 52.8422 46.1429 53.0174C46.2912 53.1791 46.5304 53.2633 46.8234 53.2701V52.9871C46.655 52.9837 46.5169 52.9265 46.4226 52.8321C46.3249 52.7344 46.2777 52.5795 46.2777 52.3875V52.31V52.2628H46.8234V52.0001H46.2979C46.2979 51.8249 46.3552 51.6699 46.4529 51.5554C46.5472 51.4476 46.6752 51.3903 46.8234 51.3869Z" fill="black"></path><path d="M40.8975 52.9872V53.2701C40.9109 53.2701 40.921 53.2701 40.9345 53.2701C41.1771 53.2701 41.3792 53.2028 41.5274 53.0747C41.6723 52.9501 41.7599 52.7749 41.7599 52.5593H41.3994C41.3994 52.6941 41.3522 52.8019 41.2647 52.8794C41.1872 52.9467 41.0625 52.9872 40.9143 52.9872C40.9076 52.9872 40.9008 52.9872 40.8975 52.9872Z" fill="black"></path><path d="M40.8975 51.9967V52.2594H41.7868C41.7868 52.2392 41.7969 52.2022 41.7969 52.1618C41.7969 52.1314 41.7969 52.0742 41.7969 52.0169C41.7969 51.744 41.7093 51.5217 41.5544 51.3667C41.3994 51.2118 41.1771 51.1343 40.9042 51.1343C40.9008 51.1343 40.9008 51.1376 40.8975 51.1376V51.3903C40.9008 51.3903 40.9076 51.3869 40.9143 51.3869C41.0592 51.3869 41.1872 51.4442 41.2815 51.552C41.3691 51.6497 41.4163 51.7946 41.4163 51.9596V52.0001H40.8975V51.9967Z" fill="black"></path><path d="M42.6905 53.2197H42.3132V51.6094C42.3132 51.569 42.3132 51.5117 42.3132 51.4444C42.3132 51.3669 42.293 51.2793 42.293 51.1816H42.6703L42.6905 51.5319C42.7376 51.4241 42.8252 51.3298 42.933 51.2692C43.0408 51.2018 43.1655 51.1614 43.3002 51.1614C43.435 51.1614 43.5731 51.1917 43.6775 51.249C43.7853 51.3062 43.8898 51.4039 43.9673 51.5218C44.0751 51.3972 44.1896 51.2995 44.2873 51.249C44.385 51.1917 44.5197 51.1614 44.6545 51.1614C44.7892 51.1614 44.9274 51.1917 45.0419 51.249C45.1564 51.3062 45.244 51.3938 45.2945 51.4915C45.3148 51.5319 45.335 51.5993 45.3417 51.6667C45.3518 51.7442 45.3619 51.852 45.3619 51.9766V53.2197H44.9947V51.9295C44.9947 51.7745 44.9543 51.6465 44.8869 51.569C44.8094 51.4915 44.6915 51.4511 44.5467 51.4511C44.3917 51.4511 44.2637 51.4983 44.1795 51.5858C44.0818 51.6835 44.0346 51.8082 44.0346 51.9631V53.2163H43.6573V51.9935C43.6573 51.8082 43.6169 51.6633 43.5495 51.5757C43.472 51.4881 43.3541 51.441 43.1992 51.441C43.0442 51.441 42.9095 51.4881 42.8219 51.5858C42.7343 51.6835 42.6871 51.8183 42.6871 51.9935V53.2197H42.6905Z" fill="black"></path><path d="M40.8977 51.3869V51.1343C40.5978 51.1343 40.3587 51.232 40.2071 51.424C40.0521 51.6093 39.9746 51.8889 39.9746 52.2493C39.9746 52.5795 40.0622 52.8422 40.2172 53.0174C40.3654 53.1791 40.6046 53.2633 40.8977 53.2701V52.9871C40.7292 52.9837 40.5911 52.9265 40.4968 52.8321C40.3991 52.7344 40.3519 52.5795 40.3519 52.3875V52.31V52.2628H40.8977V52.0001H40.3721C40.3721 51.8249 40.4294 51.6699 40.5271 51.5554C40.618 51.4476 40.7494 51.3903 40.8977 51.3869Z" fill="black"></path><path d="M26.2334 52.9872V53.2701C26.54 53.26 26.7859 53.1657 26.9644 52.9872C27.1396 52.8019 27.2373 52.5324 27.2373 52.1921C27.2373 51.862 27.1396 51.5992 26.9644 51.4173C26.7892 51.2354 26.5433 51.1377 26.2334 51.1377V51.4072V51.4106C26.4254 51.4139 26.5838 51.488 26.6916 51.6228C26.7994 51.7576 26.8566 51.9529 26.8566 52.1955C26.8566 52.4482 26.7994 52.6503 26.6814 52.7884C26.577 52.9164 26.4187 52.9838 26.2334 52.9872Z" fill="black"></path><path d="M28.2149 51.5117C28.2553 51.414 28.3395 51.3163 28.4473 51.2591C28.5653 51.2018 28.7 51.1614 28.8449 51.1614C28.9796 51.1614 29.1076 51.1917 29.2121 51.2389C29.33 51.286 29.4142 51.3635 29.4748 51.441C29.5152 51.4814 29.5422 51.5488 29.5523 51.6061C29.5725 51.6734 29.5826 51.8014 29.5826 51.9564V53.2163H29.2053V51.9362C29.2053 51.761 29.1649 51.6364 29.0975 51.5589C29.02 51.4814 28.9021 51.4342 28.7472 51.4342C28.5922 51.4342 28.4642 51.4814 28.3699 51.5589C28.2722 51.6465 28.2149 51.761 28.2149 51.8991V53.2197H27.8376V51.6094C27.8376 51.5319 27.8376 51.4545 27.8376 51.3972C27.8376 51.3298 27.8174 51.2523 27.8174 51.185H28.1947L28.2149 51.5117Z" fill="black"></path><path d="M30.1143 52.6098H30.4916V52.6199C30.4916 52.7378 30.532 52.8321 30.6095 52.8928C30.6869 52.9501 30.7948 52.9905 30.9194 52.9905C31.0373 52.9905 31.1417 52.9602 31.2192 52.9029C31.2967 52.8456 31.3439 52.7681 31.3439 52.6704C31.3439 52.6031 31.3236 52.5458 31.2866 52.5054C31.2495 52.4649 31.1788 52.4178 31.1013 52.3976L30.6634 52.2999C30.4882 52.2594 30.3433 52.182 30.2659 52.1045C30.1783 52.0169 30.1311 51.9024 30.1311 51.7642C30.1311 51.579 30.2086 51.424 30.3534 51.3095C30.4983 51.1915 30.7038 51.1343 30.9463 51.1343C31.1788 51.1343 31.3641 51.1814 31.4887 51.2791C31.6235 51.3768 31.6908 51.5116 31.6908 51.6665C31.6908 51.6868 31.6908 51.707 31.6908 51.707L31.6807 51.7272H31.3169V51.7171C31.3169 51.6194 31.2765 51.5419 31.2091 51.4846C31.1417 51.4274 31.0339 51.397 30.9194 51.397C30.8015 51.397 30.7072 51.4274 30.6364 51.4846C30.5589 51.5419 30.5185 51.6194 30.5185 51.6969C30.5185 51.7541 30.5488 51.8148 30.5859 51.8518C30.6263 51.8923 30.7105 51.9394 30.8082 51.9596L31.2731 52.0843C31.4281 52.1247 31.5561 52.2022 31.6336 52.2864C31.7111 52.374 31.7515 52.4986 31.7515 52.6368C31.7515 52.8321 31.674 52.9871 31.5291 53.0915C31.3843 53.2094 31.1788 53.2667 30.9362 53.2667C30.6533 53.2667 30.441 53.2196 30.3164 53.1219C30.1816 53.0242 30.1143 52.8692 30.1143 52.657V52.6098Z" fill="black"></path><path d="M32.2807 52.6098H32.658V52.6199C32.658 52.7378 32.6984 52.8321 32.7759 52.8928C32.8534 52.9501 32.9612 52.9905 33.0859 52.9905C33.2038 52.9905 33.3082 52.9602 33.3857 52.9029C33.4632 52.8456 33.5103 52.7681 33.5103 52.6704C33.5103 52.6031 33.4901 52.5458 33.453 52.5054C33.416 52.4649 33.3452 52.4178 33.2678 52.3976L32.8298 52.2999C32.6546 52.2594 32.5098 52.182 32.4323 52.1045C32.3447 52.0169 32.2976 51.9024 32.2976 51.7642C32.2976 51.579 32.375 51.424 32.5199 51.3095C32.6648 51.1949 32.8702 51.1343 33.1128 51.1343C33.3452 51.1343 33.5305 51.1814 33.6552 51.2791C33.7899 51.3768 33.8573 51.5116 33.8573 51.6665C33.8573 51.6868 33.8573 51.707 33.8573 51.707L33.8472 51.7272H33.48V51.7171C33.48 51.6194 33.4396 51.5419 33.3722 51.4846C33.3048 51.4274 33.197 51.397 33.0825 51.397C32.9646 51.397 32.8702 51.4274 32.7995 51.4846C32.722 51.5419 32.6816 51.6194 32.6816 51.6969C32.6816 51.7541 32.7119 51.8148 32.749 51.8518C32.7894 51.8923 32.8736 51.9394 32.9713 51.9596L33.4362 52.0843C33.5912 52.1247 33.7192 52.2022 33.7967 52.2864C33.8741 52.374 33.9146 52.4986 33.9146 52.6368C33.9146 52.8321 33.8371 52.9871 33.6922 53.0915C33.5474 53.2094 33.3419 53.2667 33.0993 53.2667C32.8163 53.2667 32.6041 53.2196 32.4795 53.1219C32.3447 53.0242 32.2773 52.8692 32.2773 52.657L32.2807 52.6098Z" fill="black"></path><path d="M34.8309 53.9876L35.1509 53.2195L34.3154 51.1814H34.6961L35.3463 52.8018L35.9964 51.1814H36.3738L35.1812 53.9876H34.8309Z" fill="black"></path><path d="M36.6733 52.6098H37.0506V52.6199C37.0506 52.7378 37.091 52.8321 37.1685 52.8928C37.246 52.9501 37.3538 52.9905 37.4784 52.9905C37.5963 52.9905 37.7008 52.9602 37.7782 52.9029C37.8557 52.8456 37.9029 52.7681 37.9029 52.6704C37.9029 52.6031 37.8827 52.5458 37.8456 52.5054C37.8086 52.4649 37.7378 52.4178 37.6603 52.3976L37.2224 52.2999C37.0472 52.2594 36.9024 52.182 36.8249 52.1045C36.7373 52.0169 36.6901 51.9024 36.6901 51.7642C36.6901 51.579 36.7676 51.424 36.9125 51.3095C37.0573 51.1949 37.2628 51.1343 37.5054 51.1343C37.7378 51.1343 37.9231 51.1814 38.0478 51.2791C38.1825 51.3768 38.2499 51.5116 38.2499 51.6665C38.2499 51.6868 38.2499 51.707 38.2499 51.707L38.2398 51.7272H37.8726V51.7171C37.8726 51.6194 37.8321 51.5419 37.7648 51.4846C37.6974 51.4274 37.5896 51.397 37.4751 51.397C37.3572 51.397 37.2628 51.4274 37.1921 51.4846C37.1146 51.5419 37.0742 51.6194 37.0742 51.6969C37.0742 51.7541 37.1045 51.8148 37.1416 51.8518C37.182 51.8923 37.2662 51.9394 37.3639 51.9596L37.8288 52.0843C37.9837 52.1247 38.1118 52.2022 38.1892 52.2864C38.2667 52.374 38.3071 52.4986 38.3071 52.6368C38.3071 52.8321 38.2297 52.9871 38.0848 53.0915C37.94 53.2094 37.7345 53.2667 37.4919 53.2667C37.2089 53.2667 36.9967 53.2196 36.872 53.1219C36.7373 53.0242 36.6699 52.8692 36.6699 52.657L36.6733 52.6098Z" fill="black"></path><path d="M38.5063 51.1815H38.8567V50.7739L39.2238 50.6392V51.1815H39.6786V51.4544H39.2238V52.7143C39.2238 52.812 39.2441 52.8895 39.271 52.9165C39.3013 52.9468 39.3788 52.9636 39.4731 52.9636C39.4934 52.9636 39.5304 52.9636 39.5607 52.9636C39.591 52.9636 39.6281 52.9434 39.6685 52.9434V53.2163C39.6113 53.2365 39.5439 53.2567 39.5035 53.2567C39.4563 53.2567 39.4058 53.2668 39.3687 53.2668C39.1834 53.2668 39.0487 53.2264 38.9712 53.1691C38.8937 53.1118 38.8533 52.9939 38.8533 52.839V51.451H38.5029V51.1815H38.5063Z" fill="black"></path><path d="M26.2332 51.1376L26.2366 51.4071C26.0412 51.4071 25.8761 51.4846 25.7717 51.6295C25.6639 51.7743 25.6066 51.9798 25.6066 52.2325C25.6066 52.4649 25.6639 52.6603 25.7616 52.785C25.8694 52.9197 26.0243 52.9871 26.2163 52.9871C26.2197 52.9871 26.2298 52.9871 26.2332 52.9871V53.2701C26.2197 53.2701 26.2029 53.2701 26.186 53.2701C25.8963 53.2701 25.6538 53.1724 25.4786 52.9972C25.3034 52.822 25.2158 52.5593 25.2158 52.2392C25.2158 51.9091 25.3135 51.6295 25.4887 51.4341C25.6639 51.2387 25.9165 51.1343 26.2265 51.1343C26.2265 51.1343 26.2298 51.1376 26.2332 51.1376Z" fill="black"></path><path d="M26.2333 51.4072L26.2266 51.4038C26.2266 51.4072 26.2299 51.4072 26.2333 51.4072Z" fill="black"></path><path d="M21.3525 52.9635V53.2498C21.4401 53.233 21.5176 53.206 21.5884 53.169C21.6962 53.1117 21.7837 53.0241 21.8309 52.9062V52.9163C21.841 53.0713 21.8612 53.1791 21.8713 53.2161H22.2116C22.2116 53.1757 22.1914 53.1387 22.1914 53.0982C22.1914 53.0679 22.1914 53.041 22.1914 53.0308V51.7709C22.1914 51.5486 22.124 51.3734 21.996 51.2757C21.868 51.178 21.6557 51.1309 21.3862 51.1309C21.3728 51.1309 21.366 51.1342 21.3559 51.1342V51.3768C21.3728 51.3768 21.3896 51.3734 21.4064 51.3734C21.5412 51.3734 21.649 51.4037 21.7164 51.461C21.7736 51.5183 21.8141 51.6059 21.8141 51.7137V51.9461H21.4536C21.4199 51.9461 21.3896 51.9495 21.3525 51.9495V52.2055C21.3963 52.2021 21.4435 52.1988 21.4907 52.1988H21.8107V52.411C21.8107 52.5862 21.7635 52.731 21.6658 52.8287C21.5917 52.9028 21.4873 52.95 21.3525 52.9635Z" fill="black"></path><path d="M22.585 51.1815H22.9353V50.7739L23.3025 50.6392V51.1815H23.7573V51.4544H23.3059V52.7143C23.3059 52.812 23.3261 52.8895 23.353 52.9165C23.38 52.9434 23.4608 52.9636 23.5552 52.9636C23.5754 52.9636 23.6124 52.9636 23.6428 52.9636C23.6731 52.9636 23.7101 52.9434 23.7506 52.9434V53.2163C23.6933 53.2365 23.6259 53.2567 23.5855 53.2567C23.5383 53.2567 23.4878 53.2668 23.4507 53.2668C23.2655 53.2668 23.1307 53.2264 23.0532 53.1691C22.9757 53.1118 22.9353 52.9939 22.9353 52.839V51.451H22.585V51.1815Z" fill="black"></path><path d="M24.6507 50.2888H24.2061V50.7065H24.6507V50.2888Z" fill="black"></path><path d="M24.6234 51.1814H24.2461V53.2195H24.6234V51.1814Z" fill="black"></path><path d="M21.3523 51.3802V51.1377C21.1232 51.1411 20.9413 51.1882 20.82 51.2792C20.7021 51.3769 20.6348 51.5217 20.6348 51.6969V51.7272H20.9952C20.9952 51.6295 21.0356 51.5318 21.1131 51.4746C21.1704 51.424 21.2546 51.387 21.3523 51.3802Z" fill="black"></path><path d="M21.3523 52.2089V51.9529C21.1064 51.9664 20.8975 52.0304 20.7527 52.1415C20.5876 52.2662 20.5 52.4414 20.5 52.657C20.5 52.8422 20.5674 52.9972 20.6853 53.1016C20.8032 53.2094 20.975 53.2667 21.1704 53.2667C21.2344 53.2667 21.295 53.2633 21.3523 53.2499V52.9635C21.3254 52.9669 21.295 52.9669 21.2681 52.9669C21.1603 52.9669 21.066 52.9265 20.9952 52.8692C20.9278 52.8119 20.8874 52.7142 20.8874 52.6165C20.8874 52.4919 20.9447 52.3841 21.0424 52.3066C21.1165 52.2561 21.2209 52.2224 21.3523 52.2089Z" fill="black"></path><path d="M13.7451 52.9872V53.2701C14.0517 53.26 14.2976 53.1657 14.4761 52.9872C14.6513 52.8019 14.749 52.5324 14.749 52.1921C14.749 51.862 14.6513 51.5992 14.4761 51.4173C14.301 51.2354 14.055 51.1377 13.7451 51.1377V51.4072V51.4106C13.9371 51.4139 14.0955 51.488 14.2033 51.6228C14.3111 51.7576 14.3683 51.9529 14.3683 52.1955C14.3683 52.4482 14.3111 52.6503 14.1932 52.7884C14.0887 52.9164 13.9304 52.9838 13.7451 52.9872Z" fill="black"></path><path d="M15.3288 53.2195V51.5014C15.3288 51.4442 15.3288 51.3768 15.3288 51.3364C15.3288 51.2892 15.3086 51.2286 15.3086 51.1814H15.6859L15.696 51.5789C15.7263 51.4543 15.7937 51.3465 15.8914 51.2892C15.9891 51.2218 16.1137 51.1814 16.2687 51.1814C16.2889 51.1814 16.326 51.1814 16.3462 51.1814C16.3664 51.1814 16.4034 51.2016 16.4237 51.2016V51.552C16.3832 51.552 16.3361 51.5317 16.3058 51.5317C16.2754 51.5317 16.2384 51.5216 16.2081 51.5216C16.0531 51.5216 15.9183 51.5688 15.8308 51.6665C15.7432 51.7642 15.696 51.8989 15.696 52.0741V53.2195H15.3288Z" fill="black"></path><path d="M17.2891 53.2197H16.9118V51.6094C16.9118 51.569 16.9118 51.5117 16.9118 51.4444C16.9118 51.3669 16.8916 51.2793 16.8916 51.1816H17.2689L17.2891 51.5319C17.3363 51.4241 17.4239 51.3298 17.5317 51.2692C17.6395 51.2018 17.7641 51.1614 17.8989 51.1614C18.0336 51.1614 18.1717 51.1917 18.2762 51.249C18.384 51.3062 18.4884 51.4039 18.5659 51.5218C18.6737 51.3972 18.7882 51.2995 18.8859 51.249C18.9836 51.1917 19.1184 51.1614 19.2531 51.1614C19.3879 51.1614 19.526 51.1917 19.6405 51.249C19.7584 51.3062 19.8426 51.3938 19.8932 51.4915C19.9134 51.5319 19.9336 51.5993 19.9403 51.6667C19.9505 51.7442 19.9606 51.852 19.9606 51.9766V53.2197H19.5934V51.9295C19.5934 51.7745 19.5529 51.6465 19.4856 51.569C19.4081 51.4915 19.2902 51.4511 19.1453 51.4511C18.9903 51.4511 18.8623 51.4983 18.7781 51.5858C18.6804 51.6835 18.6333 51.8082 18.6333 51.9631V53.2163H18.256V51.9935C18.256 51.8082 18.2155 51.6633 18.1482 51.5757C18.0707 51.4881 17.9528 51.441 17.7978 51.441C17.6428 51.441 17.5081 51.4881 17.4205 51.5858C17.3329 51.6835 17.2857 51.8183 17.2857 51.9935V53.2197H17.2891Z" fill="black"></path><path d="M13.7459 51.1376L13.7493 51.4071C13.5539 51.4071 13.3888 51.4846 13.2844 51.6295C13.1766 51.7743 13.1193 51.9798 13.1193 52.2325C13.1193 52.4649 13.1766 52.6603 13.2743 52.785C13.3821 52.9197 13.537 52.9871 13.729 52.9871C13.7324 52.9871 13.7425 52.9871 13.7459 52.9871V53.2701C13.7324 53.2701 13.7156 53.2701 13.6987 53.2701C13.409 53.2701 13.1665 53.1724 12.9913 52.9972C12.8161 52.822 12.7285 52.5593 12.7285 52.2392C12.7285 51.9091 12.8262 51.6295 13.0014 51.4341C13.1766 51.2387 13.4292 51.1343 13.7391 51.1343C13.7425 51.1343 13.7425 51.1376 13.7459 51.1376Z" fill="black"></path><path d="M13.746 51.4072L13.7393 51.4038C13.7426 51.4072 13.7426 51.4072 13.746 51.4072Z" fill="black"></path><path d="M6.37109 52.9872V53.2701C6.67765 53.26 6.92357 53.1657 7.10212 52.9872C7.27729 52.8019 7.37499 52.5324 7.37499 52.1921C7.37499 51.862 7.27729 51.5992 7.10212 51.4173C6.92694 51.2354 6.68102 51.1377 6.37109 51.1377V51.4072V51.4106C6.56311 51.4139 6.72145 51.488 6.82925 51.6228C6.93705 51.7576 6.99432 51.9529 6.99432 52.1955C6.99432 52.4482 6.93705 52.6503 6.81914 52.7884C6.71471 52.9164 6.55975 52.9838 6.37109 52.9872Z" fill="black"></path><path d="M8.37241 50.2888H7.92773V50.7065H8.37241V50.2888Z" fill="black"></path><path d="M8.34215 51.1814H7.96484V53.2195H8.34215V51.1814Z" fill="black"></path><path d="M9.47076 51.5117C9.51118 51.414 9.5954 51.3163 9.7032 51.2591C9.82111 51.2018 9.95586 51.1614 10.1007 51.1614C10.2355 51.1614 10.3635 51.1917 10.4679 51.2389C10.5858 51.286 10.67 51.3635 10.7307 51.441C10.7711 51.4814 10.7981 51.5488 10.8082 51.6061C10.8284 51.6734 10.8385 51.8014 10.8385 51.9564V53.2163H10.4612V51.9362C10.4612 51.761 10.4208 51.6364 10.3534 51.5589C10.2759 51.4814 10.158 51.4342 10.003 51.4342C9.84806 51.4342 9.72005 51.4814 9.62572 51.5589C9.52803 51.6465 9.47076 51.761 9.47076 51.8991V53.2197H9.09345V51.6094C9.09345 51.5319 9.09345 51.4545 9.09345 51.3972C9.09345 51.3298 9.07324 51.2523 9.07324 51.185H9.45054L9.47076 51.5117Z" fill="black"></path><path d="M11.5664 51.4544H11.1992V51.1815H11.5664V50.8615C11.5664 50.6661 11.6136 50.501 11.7012 50.4067C11.7888 50.3123 11.9336 50.2517 12.129 50.2517C12.1694 50.2517 12.2267 50.2618 12.2739 50.2618C12.3311 50.2618 12.3985 50.282 12.4692 50.2921V50.592C12.3918 50.5717 12.3345 50.5515 12.3042 50.5515C12.2739 50.5515 12.2368 50.5414 12.2065 50.5414C12.129 50.5414 12.0515 50.5717 12.0111 50.629C11.9707 50.6863 11.9437 50.7739 11.9437 50.8716V51.1815H12.4086V51.4544H11.9437V53.2196H11.5664V51.4544Z" fill="black"></path><path d="M6.37089 51.1376L6.37426 51.4071C6.17887 51.4071 6.0138 51.4846 5.90936 51.6295C5.80156 51.7743 5.74429 51.9798 5.74429 52.2325C5.74429 52.4649 5.80156 52.6603 5.89926 52.785C6.00706 52.9197 6.16202 52.9871 6.35404 52.9871C6.35741 52.9871 6.36752 52.9871 6.37089 52.9871V53.2701C6.35741 53.2701 6.34057 53.2701 6.32372 53.2701C6.03401 53.2701 5.79146 53.1724 5.61628 52.9972C5.4411 52.822 5.35352 52.5593 5.35352 52.2392C5.35352 51.9091 5.45121 51.6295 5.62639 51.4341C5.80156 51.2387 6.05422 51.1343 6.36415 51.1343C6.36752 51.1343 6.36752 51.1376 6.37089 51.1376Z" fill="black"></path><path d="M6.371 51.4072L6.36426 51.4038C6.36763 51.4072 6.36763 51.4072 6.371 51.4072Z" fill="black"></path><path d="M3.97949 52.9872V53.2701C3.99297 53.2701 4.00307 53.2701 4.01655 53.2701C4.2591 53.2701 4.46123 53.2028 4.60945 53.0747C4.75768 52.9467 4.8419 52.7749 4.8419 52.5593H4.48144C4.48144 52.6941 4.43428 52.8019 4.34669 52.8794C4.26921 52.9467 4.14456 52.9872 3.99634 52.9872C3.9896 52.9872 3.98623 52.9872 3.97949 52.9872Z" fill="black"></path><path d="M3.97949 51.9967V52.2594H4.86885C4.86885 52.2392 4.87896 52.2022 4.87896 52.1618C4.87896 52.1314 4.87896 52.0742 4.87896 52.0169C4.87896 51.744 4.79137 51.5217 4.6364 51.3667C4.48144 51.2118 4.2591 51.1343 3.98623 51.1343C3.98286 51.1343 3.98286 51.1376 3.97949 51.1376V51.3903C3.98286 51.3903 3.9896 51.3869 3.99634 51.3869C4.14119 51.3869 4.26921 51.4442 4.36353 51.552C4.45112 51.6497 4.49828 51.7946 4.49828 51.9596V52.0001H3.97949V51.9967Z" fill="black"></path><path d="M2.45344 53.095C2.25806 53.1522 2.07614 53.2129 1.91107 53.2297C1.746 53.26 1.58093 53.2769 1.42597 53.2769C0.98129 53.2769 0.630936 53.1421 0.378278 52.8895C0.12562 52.6267 0.000976562 52.2595 0.000976562 51.7946C0.000976562 51.3196 0.12562 50.9423 0.378278 50.6694C0.630936 50.3966 0.98129 50.2517 1.42597 50.2517C1.7359 50.2517 1.98855 50.3191 2.16373 50.4538C2.33891 50.5886 2.44671 50.7941 2.45344 51.0265H2.0155C2.0155 50.8918 1.94813 50.7739 1.83022 50.6863C1.71231 50.5987 1.54724 50.5515 1.36533 50.5515C1.07562 50.5515 0.833064 50.6694 0.667994 50.8817C0.502924 51.0939 0.415336 51.4072 0.415336 51.7845C0.415336 52.1517 0.502923 52.4549 0.6781 52.6469C0.853276 52.849 1.11604 52.9568 1.43607 52.9568C1.51356 52.9568 1.61125 52.9467 1.69884 52.9366C1.79653 52.9164 1.91107 52.8895 2.03909 52.8591V51.9765H1.42934V51.6464H2.45681L2.45344 53.095Z" fill="black"></path><path d="M3.97969 51.3869V51.1343C3.67987 51.1343 3.44068 51.232 3.28909 51.424C3.13412 51.6093 3.05664 51.8889 3.05664 52.2493C3.05664 52.5795 3.14423 52.8422 3.29919 53.0174C3.44742 53.1791 3.6866 53.2633 3.97969 53.2701V52.9871C3.81125 52.9837 3.67313 52.9265 3.5788 52.8321C3.48111 52.7344 3.43394 52.5795 3.43394 52.3875V52.31V52.2628H3.97969V52.0001H3.45416C3.45416 51.8249 3.51143 51.6699 3.60912 51.5554C3.70008 51.4476 3.83146 51.3903 3.97969 51.3869Z" fill="black"></path></g><defs><clipPath id="clip0_249_23451"><rect width="65.8868" height="54" fill="white"></rect></clipPath></defs></svg> 